<svg width="74" height="74" viewBox="0 0 74 74" fill="none" xmlns="http://www.w3.org/2000/svg">
<path opacity="0.35" fill-rule="evenodd" clip-rule="evenodd" d="M50.579 17.1464L56.1999 27.4232C56.7673 28.4592 57.6152 29.3071 58.6512 29.8744L68.9279 35.4953C71.2343 36.7564 71.2343 40.0679 68.9279 41.329L58.6512 46.9499C57.6152 47.5172 56.7673 48.3652 56.1999 49.4012L50.579 59.6779C49.3179 61.9842 46.0064 61.9842 44.7454 59.6779L39.1244 49.4012C38.5571 48.3652 37.7092 47.5172 36.6732 46.9499L26.3964 41.329C24.0901 40.0679 24.0901 36.7564 26.3964 35.4953L36.6732 29.8744C37.7092 29.3071 38.5571 28.4592 39.1244 27.4232L44.7454 17.1464C46.0064 14.8401 49.3179 14.8401 50.579 17.1464Z" fill="#5F41B2"/>
<path fill-rule="evenodd" clip-rule="evenodd" d="M21.0283 7.82858L23.051 12.5122C23.3285 13.1566 23.8434 13.6715 24.4878 13.949L29.1714 15.9717C31.3883 16.9275 31.3883 20.0725 29.1714 21.0314L24.4878 23.051C23.8434 23.3285 23.3285 23.8434 23.051 24.4878L21.0283 29.1714C20.0725 31.3883 16.9275 31.3883 15.9686 29.1714L13.949 24.4878C13.6715 23.8434 13.1566 23.3285 12.5122 23.051L7.82858 21.0283C5.61166 20.0725 5.61166 16.9275 7.82858 15.9686L12.5122 13.9459C13.1566 13.6684 13.6715 13.1535 13.949 12.5091L15.9717 7.82858C16.9275 5.61166 20.0725 5.61166 21.0283 7.82858Z" fill="#5F41B2"/>
<path fill-rule="evenodd" clip-rule="evenodd" d="M14.2296 47.4957L15.7466 51.0076C15.9563 51.4917 16.3417 51.8771 16.8258 52.0868L20.3377 53.6038C21.9996 54.3222 21.9996 56.6809 20.3377 57.3963L16.8258 58.9133C16.3417 59.1229 15.9563 59.5083 15.7466 59.9924L14.2296 63.5043C13.5112 65.1663 11.1524 65.1663 10.4371 63.5043L8.9201 59.9924C8.71043 59.5083 8.32502 59.1229 7.84093 58.9133L4.32902 57.3963C2.6671 56.6778 2.6671 54.3191 4.32902 53.6038L7.84093 52.0868C8.32502 51.8771 8.71043 51.4917 8.9201 51.0076L10.4371 47.4957C11.1555 45.8338 13.5112 45.8338 14.2296 47.4957Z" fill="#5F41B2"/>
</svg>
